<svg width="26" height="26" viewBox="0 0 26 26" fill="none" xmlns="http://www.w3.org/2000/svg">
<path d="M7.59521 0.649414C7.30852 0.649414 7.0257 0.668045 6.74797 0.704273C6.20743 0.774783 5.82641 1.27014 5.89691 1.81068C5.96742 2.35121 6.46276 2.73226 7.0033 2.66175C7.19659 2.63653 7.39413 2.62347 7.59521 2.62347H8.57082C9.11594 2.62347 9.55783 2.18156 9.55783 1.63644C9.55783 1.09133 9.11594 0.649414 8.57082 0.649414H7.59521Z" fill="#2E334C"/>
<path d="M12.0244 0.649414C11.4792 0.649414 11.0373 1.09133 11.0373 1.63644C11.0373 2.18156 11.4792 2.62347 12.0244 2.62347H13.9756C14.5207 2.62347 14.9626 2.18156 14.9626 1.63644C14.9626 1.09133 14.5207 0.649414 13.9756 0.649414H12.0244Z" fill="#2E334C"/>
<path d="M17.3447 0.649414C16.7996 0.649414 16.3577 1.09133 16.3577 1.63644C16.3577 2.18156 16.7996 2.62347 17.3447 2.62347H18.3203C18.5214 2.62347 18.7189 2.63653 18.9122 2.66175C19.4527 2.73226 19.9481 2.35121 20.0186 1.81068C20.0891 1.27014 19.7081 0.774783 19.1675 0.704273C18.8898 0.668045 18.607 0.649414 18.3203 0.649414H17.3447Z" fill="#2E334C"/>
<path d="M4.57494 2.17328C4.24279 1.74104 3.62313 1.6599 3.1909 1.99206C2.74122 2.33763 2.33815 2.74071 1.99258 3.1904C1.66044 3.62264 1.74156 4.2423 2.17379 4.57446C2.60603 4.90662 3.22568 4.82548 3.55784 4.39324C3.79885 4.0796 4.08009 3.79835 4.39373 3.55733C4.82596 3.22517 4.90709 2.60551 4.57494 2.17328Z" fill="#2E334C"/>
<path d="M22.809 1.99206C22.3768 1.6599 21.7571 1.74104 21.425 2.17328C21.0928 2.60551 21.174 3.22517 21.6062 3.55733C21.9198 3.79835 22.2011 4.0796 22.4421 4.39324C22.7742 4.82548 23.3939 4.90662 23.8261 4.57446C24.2584 4.2423 24.3395 3.62264 24.0073 3.1904C23.6618 2.74071 23.2587 2.33764 22.809 1.99206Z" fill="#2E334C"/>
<path fill-rule="evenodd" clip-rule="evenodd" d="M12.1392 6.84763C10.7383 6.84763 9.60269 7.98329 9.60269 9.38419C9.60269 10.7851 10.7383 11.9207 12.1392 11.9207C13.5401 11.9207 14.6757 10.7851 14.6757 9.38419C14.6757 7.98329 13.5401 6.84763 12.1392 6.84763ZM11.5767 9.38419C11.5767 9.07352 11.8286 8.82168 12.1392 8.82168C12.4498 8.82168 12.7017 9.07352 12.7017 9.38419C12.7017 9.69485 12.4498 9.94669 12.1392 9.94669C11.8286 9.94669 11.5767 9.69485 11.5767 9.38419Z" fill="#2E334C"/>
<path fill-rule="evenodd" clip-rule="evenodd" d="M8.868 4.43705C6.42118 4.43705 4.43765 6.42062 4.43765 8.86748V17.1316C4.43765 19.5785 6.42118 21.5621 8.868 21.5621H17.132C19.5788 21.5621 21.5623 19.5785 21.5623 17.1316V8.86747C21.5623 6.42062 19.5788 4.43705 17.132 4.43705H8.868ZM6.41168 8.86748C6.41168 7.51085 7.51142 6.4111 8.868 6.4111H17.132C18.4886 6.4111 19.5883 7.51085 19.5883 8.86747V14.9319L15.7531 11.5687C15.3748 11.237 14.8074 11.2429 14.4362 11.5826L12.3946 13.4503L10.2102 11.5638C9.8188 11.2258 9.23285 11.2472 8.86717 11.6129L6.41168 14.0684V8.86748ZM13.899 14.7495L15.1163 13.6358L19.5563 17.5295C19.4646 18.0931 19.1808 18.5929 18.7735 18.959L13.899 14.7495ZM6.41168 16.8602L9.61432 13.6575L16.4816 19.588H8.868C7.51142 19.588 6.41168 18.4883 6.41168 17.1316V16.8602Z" fill="#2E334C"/>
<path d="M1.81121 5.84625C1.27067 5.77574 0.775328 6.15679 0.704821 6.69732C0.668594 6.97506 0.649963 7.25789 0.649963 7.54458V8.52021C0.649963 9.06532 1.09186 9.50724 1.63698 9.50724C2.1821 9.50724 2.624 9.06532 2.624 8.52021V7.54458C2.624 7.34349 2.63706 7.14595 2.66227 6.95266C2.73278 6.41212 2.35175 5.91676 1.81121 5.84625Z" fill="#2E334C"/>
<path d="M25.2951 6.69732C25.2246 6.15679 24.7293 5.77574 24.1887 5.84625C23.6482 5.91676 23.2672 6.41212 23.3377 6.95266C23.3629 7.14595 23.3759 7.34349 23.3759 7.54458V8.52021C23.3759 9.06532 23.8178 9.50723 24.3629 9.50723C24.9081 9.50723 25.35 9.06532 25.35 8.52021V7.54458C25.35 7.25789 25.3313 6.97506 25.2951 6.69732Z" fill="#2E334C"/>
<path d="M1.63698 11.037C1.09186 11.037 0.649963 11.4789 0.649963 12.024V13.9753C0.649963 14.5204 1.09186 14.9623 1.63698 14.9623C2.1821 14.9623 2.624 14.5204 2.624 13.9753V12.024C2.624 11.4789 2.1821 11.037 1.63698 11.037Z" fill="#2E334C"/>
<path d="M24.3629 11.037C23.8178 11.037 23.3759 11.4789 23.3759 12.024V13.9753C23.3759 14.5204 23.8178 14.9623 24.3629 14.9623C24.9081 14.9623 25.35 14.5204 25.35 13.9753V12.024C25.35 11.4789 24.9081 11.037 24.3629 11.037Z" fill="#2E334C"/>
<path d="M24.3629 16.0947C23.8178 16.0947 23.3759 16.5366 23.3759 17.0818V18.0574C23.3759 18.2585 23.3629 18.456 23.3377 18.6493C23.2672 19.1898 23.6482 19.6852 24.1887 19.7557C24.7293 19.8262 25.2246 19.4452 25.2951 18.9046C25.3313 18.6269 25.35 18.3441 25.35 18.0574V17.0818C25.35 16.5366 24.9081 16.0947 24.3629 16.0947Z" fill="#2E334C"/>
<path d="M1.63698 16.0947C1.09186 16.0947 0.649963 16.5366 0.649963 17.0818V18.0574C0.649963 18.3441 0.668594 18.6269 0.704821 18.9046C0.775328 19.4452 1.27067 19.8262 1.81121 19.7557C2.35175 19.6852 2.73278 19.1898 2.66227 18.6493C2.63706 18.456 2.624 18.2585 2.624 18.0574V17.0818C2.624 16.5366 2.1821 16.0947 1.63698 16.0947Z" fill="#2E334C"/>
<path d="M4.39373 22.442C4.08009 22.201 3.79885 21.9197 3.55783 21.6061C3.22568 21.1738 2.60602 21.0927 2.17379 21.4249C1.74156 21.757 1.66043 22.3767 1.99258 22.8089C2.33814 23.2586 2.74121 23.6617 3.1909 24.0073C3.62313 24.3394 4.24279 24.2583 4.57494 23.826C4.90709 23.3938 4.82596 22.7742 4.39373 22.442Z" fill="#2E334C"/>
<path d="M23.8261 21.4249C23.3939 21.0927 22.7742 21.1738 22.4421 21.6061C22.2011 21.9197 21.9198 22.201 21.6062 22.442C21.174 22.7742 21.0928 23.3938 21.425 23.826C21.7571 24.2583 22.3768 24.3394 22.809 24.0073C23.2587 23.6617 23.6618 23.2586 24.0073 22.8089C24.3395 22.3767 24.2584 21.757 23.8261 21.4249Z" fill="#2E334C"/>
<path d="M7.00324 23.3375C6.4627 23.267 5.96736 23.648 5.89685 24.1885C5.82634 24.7291 6.20737 25.2244 6.74791 25.2949C7.02564 25.3312 7.30846 25.3498 7.59515 25.3498H8.57076C9.11588 25.3498 9.55777 24.9079 9.55777 24.3628C9.55777 23.8177 9.11588 23.3757 8.57076 23.3757H7.59515C7.39406 23.3757 7.19653 23.3627 7.00324 23.3375Z" fill="#2E334C"/>
<path d="M20.0186 24.1885C19.9481 23.648 19.4528 23.267 18.9123 23.3375C18.719 23.3627 18.5214 23.3757 18.3204 23.3757H17.3447C16.7996 23.3757 16.3577 23.8177 16.3577 24.3628C16.3577 24.9079 16.7996 25.3498 17.3447 25.3498H18.3204C18.607 25.3498 18.8899 25.3312 19.1676 25.2949C19.7081 25.2244 20.0892 24.7291 20.0186 24.1885Z" fill="#2E334C"/>
<path d="M12.0244 23.3759C11.4792 23.3759 11.0373 23.8178 11.0373 24.3629C11.0373 24.908 11.4792 25.3499 12.0244 25.3499H13.9756C14.5207 25.3499 14.9626 24.908 14.9626 24.3629C14.9626 23.8178 14.5207 23.3759 13.9756 23.3759H12.0244Z" fill="#2E334C"/>
</svg>
