<svg width="32" height="33" viewBox="0 0 32 33" fill="none" xmlns="http://www.w3.org/2000/svg">
<path fill-rule="evenodd" clip-rule="evenodd" d="M16.6001 6.78677C16.4694 6.21177 15.9581 5.80371 15.3684 5.80371C14.7787 5.80371 14.2675 6.21177 14.1367 6.78677L12.9698 11.9186C12.6466 13.3402 11.5365 14.4503 10.1149 14.7735L4.98312 15.9404C4.40806 16.0712 4 16.5824 4 17.1721C4 17.7619 4.40806 18.2731 4.98312 18.4039L10.1149 19.5708C11.5365 19.894 12.6466 21.0041 12.9698 22.4257L14.1367 27.5575C14.2675 28.1325 14.7787 28.5406 15.3684 28.5406C15.9581 28.5406 16.4694 28.1325 16.6001 27.5575L17.767 22.4257C18.0904 21.0041 19.2004 19.894 20.622 19.5708L25.7538 18.4039C26.3288 18.2731 26.7369 17.7619 26.7369 17.1721C26.7369 16.5824 26.3288 16.0712 25.7538 15.9404L20.622 14.7735C19.2004 14.4503 18.0904 13.3402 17.767 11.9186L16.6001 6.78677Z" fill="#000000"/>
<path fill-rule="evenodd" clip-rule="evenodd" d="M24.0583 4.92283C24.0074 4.69922 23.8086 4.54053 23.5793 4.54053C23.3499 4.54053 23.1511 4.69922 23.1003 4.92283L22.6465 6.91854C22.5208 7.47137 22.089 7.90309 21.5362 8.02879L19.5405 8.48259C19.3169 8.53343 19.1582 8.73226 19.1582 8.96159C19.1582 9.19092 19.3169 9.38974 19.5405 9.44058L21.5362 9.89438C22.089 10.0201 22.5208 10.4518 22.6465 11.0046L23.1003 13.0003C23.1511 13.224 23.3499 13.3826 23.5793 13.3826C23.8086 13.3826 24.0074 13.224 24.0583 13.0003L24.5121 11.0046C24.6378 10.4518 25.0695 10.0201 25.6223 9.89438L27.618 9.44058C27.8416 9.38974 28.0003 9.19092 28.0003 8.96159C28.0003 8.73226 27.8416 8.53343 27.618 8.48259L25.6223 8.02879C25.0695 7.90309 24.6378 7.47137 24.5121 6.91854L24.0583 4.92283Z" fill="#000000"/>
<path fill-rule="evenodd" clip-rule="evenodd" d="M7.78089 22.4709C7.74821 22.3271 7.62039 22.2251 7.47297 22.2251C7.32554 22.2251 7.19773 22.3271 7.16504 22.4709L6.87331 23.7538C6.7925 24.1092 6.51497 24.3867 6.15958 24.4676L4.87664 24.7593C4.73288 24.792 4.63086 24.9198 4.63086 25.0672C4.63086 25.2146 4.73288 25.3424 4.87664 25.3751L6.15958 25.6669C6.51497 25.7477 6.7925 26.0252 6.87331 26.3806L7.16504 27.6636C7.19773 27.8073 7.32554 27.9093 7.47297 27.9093C7.62039 27.9093 7.74821 27.8073 7.78089 27.6636L8.07262 26.3806C8.15345 26.0252 8.43096 25.7477 8.78635 25.6669L10.0693 25.3751C10.2131 25.3424 10.3151 25.2146 10.3151 25.0672C10.3151 24.9198 10.2131 24.792 10.0693 24.7593L8.78635 24.4676C8.43096 24.3867 8.15345 24.1092 8.07262 23.7538L7.78089 22.4709Z" fill="#000000"/>
</svg>
