<svg width="72" height="75" viewBox="0 0 72 75" fill="none" xmlns="http://www.w3.org/2000/svg">
<g opacity="0.4">
<path d="M79.6034 27.2443L68.5337 9.06446C65.1084 3.43544 58.9959 0 52.405 0H31.0951C24.5041 0 18.3916 3.43544 14.9663 9.06446L3.89661 27.2443C0.221964 33.2754 0.221964 40.8537 3.89661 46.8848L14.9663 65.0646C18.3916 70.6936 24.5041 74.1291 31.0951 74.1291H52.405C58.9959 74.1291 65.1084 70.6936 68.5337 65.0646L79.6034 46.8848C83.2781 40.8537 83.2781 33.2754 79.6034 27.2443Z" fill="url(#paint0_linear_2945_42)"/>
<path fill-rule="evenodd" clip-rule="evenodd" d="M44.3287 15.2977C44.0547 14.0926 42.9831 13.2373 41.7471 13.2373C40.5112 13.2373 39.4396 14.0926 39.1656 15.2977L36.7199 26.0536C36.0424 29.033 33.7156 31.3597 30.7362 32.0372L19.9804 34.483C18.7752 34.757 17.9199 35.8285 17.9199 37.0645C17.9199 38.3005 18.7752 39.372 19.9804 39.6461L30.7362 42.0918C33.7156 42.7693 36.0424 45.096 36.7199 48.0755L39.1656 58.8313C39.4396 60.0365 40.5112 60.8917 41.7471 60.8917C42.9831 60.8917 44.0547 60.0365 44.3287 58.8313L46.7744 48.0755C47.452 45.096 49.7786 42.7693 52.7581 42.0918L63.5139 39.6461C64.7191 39.372 65.5743 38.3005 65.5743 37.0645C65.5743 35.8285 64.7191 34.757 63.5139 34.483L52.7581 32.0372C49.7786 31.3597 47.452 29.033 46.7744 26.0536L44.3287 15.2977Z" fill="white"/>
<path fill-rule="evenodd" clip-rule="evenodd" d="M59.9595 11.3911C59.853 10.9224 59.4362 10.5898 58.9556 10.5898C58.4749 10.5898 58.0582 10.9224 57.9517 11.3911L57.0005 15.5739C56.7371 16.7326 55.8322 17.6375 54.6736 17.9009L50.4908 18.852C50.0221 18.9586 49.6895 19.3753 49.6895 19.856C49.6895 20.3366 50.0221 20.7534 50.4908 20.8599L54.6736 21.811C55.8322 22.0745 56.7371 22.9793 57.0005 24.138L57.9517 28.3209C58.0582 28.7895 58.4749 29.1221 58.9556 29.1221C59.4362 29.1221 59.853 28.7895 59.9595 28.3209L60.9106 24.138C61.1742 22.9793 62.0789 22.0745 63.2376 21.811L67.4205 20.8599C67.8891 20.7534 68.2217 20.3366 68.2217 19.856C68.2217 19.3753 67.8891 18.9586 67.4205 18.852L63.2376 17.9009C62.0789 17.6375 61.1742 16.7326 60.9106 15.5739L59.9595 11.3911Z" fill="white"/>
<path fill-rule="evenodd" clip-rule="evenodd" d="M25.8458 48.1694C25.7773 47.8681 25.5094 47.6543 25.2005 47.6543C24.8915 47.6543 24.6236 47.8681 24.5551 48.1694L23.9436 50.8584C23.7743 51.6032 23.1926 52.1849 22.4477 52.3543L19.7588 52.9657C19.4575 53.0342 19.2437 53.3021 19.2437 53.6111C19.2437 53.9201 19.4575 54.188 19.7588 54.2565L22.4477 54.8679C23.1926 55.0373 23.7743 55.619 23.9436 56.3638L24.5551 59.0528C24.6236 59.3541 24.8915 59.5679 25.2005 59.5679C25.5094 59.5679 25.7773 59.3541 25.8458 59.0528L26.4573 56.3638C26.6267 55.619 27.2083 55.0373 27.9532 54.8679L30.6422 54.2565C30.9434 54.188 31.1573 53.9201 31.1573 53.6111C31.1573 53.3021 30.9434 53.0342 30.6422 52.9657L27.9532 52.3543C27.2083 52.1849 26.6267 51.6032 26.4573 50.8584L25.8458 48.1694Z" fill="white"/>
</g>
<defs>
<linearGradient id="paint0_linear_2945_42" x1="71.7484" y1="-56.9205" x2="21.4465" y2="66.8485" gradientUnits="userSpaceOnUse">
<stop stop-color="#0092E4"/>
<stop offset="1" stop-color="#E7F7FE"/>
</linearGradient>
</defs>
</svg>
